<svg xmlns="http://www.w3.org/2000/svg" width="560" height="240" viewBox="0 0 560 240">
  <rect width="560" height="240" fill="#1a1a1a" rx="10"/>
  <text x="280" y="26" text-anchor="middle" font-family="Segoe UI,Arial" font-size="14" fill="#e0e0e0" font-weight="bold">Binární vyhledávací strom (BST) a vyhledávání O(log N)</text>
  <circle cx="280" cy="60" r="18" fill="#1e3a8a" stroke="#3b82f6" stroke-width="2"/>
  <text x="280" y="65" text-anchor="middle" font-family="Arial" font-size="12" fill="#fff" font-weight="bold">20</text>
  <line x1="265" y1="72" x2="175" y2="108" stroke="#60a5fa" stroke-width="1.5"/>
  <line x1="295" y1="72" x2="385" y2="108" stroke="#60a5fa" stroke-width="1.5"/>
  <text x="200" y="85" font-family="Arial" font-size="8" fill="#93c5fd">Menší (&lt;20)</text>
  <text x="340" y="85" font-family="Arial" font-size="8" fill="#93c5fd">Větší (&gt;20)</text>
  <circle cx="165" cy="118" r="16" fill="#166534" stroke="#22c55e" stroke-width="1.5"/>
  <text x="165" y="123" text-anchor="middle" font-family="Arial" font-size="11" fill="#fff" font-weight="bold">10</text>
  <circle cx="395" cy="118" r="16" fill="#166534" stroke="#22c55e" stroke-width="1.5"/>
  <text x="395" y="123" text-anchor="middle" font-family="Arial" font-size="11" fill="#fff" font-weight="bold">30</text>
  <line x1="155" y1="132" x2="105" y2="165" stroke="#4ade80" stroke-width="1.5"/>
  <line x1="175" y1="132" x2="225" y2="165" stroke="#4ade80" stroke-width="1.5"/>
  <line x1="385" y1="132" x2="335" y2="165" stroke="#4ade80" stroke-width="1.5"/>
  <line x1="405" y1="132" x2="455" y2="165" stroke="#4ade80" stroke-width="1.5"/>
  <circle cx="95" cy="178" r="14" fill="#14532d" stroke="#4ade80"/><text x="95" y="182" text-anchor="middle" font-family="Arial" font-size="10" fill="#fff">5</text>
  <circle cx="235" cy="178" r="14" fill="#14532d" stroke="#4ade80"/><text x="235" y="182" text-anchor="middle" font-family="Arial" font-size="10" fill="#fff">15</text>
  <circle cx="325" cy="178" r="14" fill="#14532d" stroke="#4ade80"/><text x="325" y="182" text-anchor="middle" font-family="Arial" font-size="10" fill="#fff">25</text>
  <circle cx="465" cy="178" r="14" fill="#14532d" stroke="#4ade80"/><text x="465" y="182" text-anchor="middle" font-family="Arial" font-size="10" fill="#fff">35</text>
  <text x="280" y="220" text-anchor="middle" font-family="Arial" font-size="9" fill="#666">Vyvážený BST (např. Red-Black strom) garantuje O(log N) operace pro správu paměťových bloků v jádře</text>
</svg>